<?xml version="1.0" encoding="utf-8"?><svg version="1.1" id="Layer_1" xmlns="http://www.w3.org/2000/svg" xmlns:xlink="http://www.w3.org/1999/xlink" x="0px" y="0px" viewBox="0 0 122.88 122.88" style="enable-background:new 0 0 122.88 122.88" xml:space="preserve"><g><path d="M61.44,0c16.97,0,32.33,6.88,43.44,18c11.12,11.12,18,26.48,18,43.44c0,16.97-6.88,32.33-18,43.44 c-11.12,11.12-26.48,18-43.44,18c-16.97,0-32.33-6.88-43.44-18C6.88,93.77,0,78.41,0,61.44C0,44.47,6.88,29.11,18,18 C29.11,6.88,44.47,0,61.44,0L61.44,0z M42.3,39.47h13.59v43.95l-13.59,0V39.47L42.3,39.47L42.3,39.47z M66.99,39.47h13.59v43.95 l-13.59,0V39.47L66.99,39.47L66.99,39.47z M97.42,25.46c-9.21-9.21-21.93-14.9-35.98-14.9c-14.05,0-26.78,5.7-35.98,14.9 c-9.21,9.21-14.9,21.93-14.9,35.98s5.7,26.78,14.9,35.98c9.21,9.21,21.93,14.9,35.98,14.9c14.05,0,26.78-5.7,35.98-14.9 c9.21-9.21,14.9-21.93,14.9-35.98S106.63,34.66,97.42,25.46L97.42,25.46z"/></g></svg>