<svg xmlns="http://www.w3.org/2000/svg" shape-rendering="geometricPrecision" text-rendering="geometricPrecision" image-rendering="optimizeQuality" fill-rule="evenodd" clip-rule="evenodd" viewBox="0 0 512 512"><path fill-rule="nonzero" d="M256.01 512c-70.68 0-134.7-28.66-181.03-74.98C28.66 390.7 0 326.69 0 256.01c0-70.69 28.66-134.7 74.98-181.03C121.31 28.66 185.33 0 256.01 0S390.7 28.66 437.02 74.98C483.34 121.31 512 185.33 512 256.01s-28.66 134.69-74.98 181.01C390.7 483.34 326.69 512 256.01 512zm-11.55-242.2c-10.29-9.17-10.01-17.33 0-26.62l82.3-76.78c11.21-7.03 22.9-2.9 22.59 11.73l-.43 154.47c-.98 15.86-10.02 20.21-23.38 12.87l-81.08-75.67zm-41.69 78.99h-29.85c-5.65 0-10.27-4.65-10.27-10.28V173.47c0-5.62 4.65-10.27 10.27-10.27h29.85c5.63 0 10.28 4.62 10.28 10.27v165.04c0 5.66-4.62 10.28-10.28 10.28zM99.26 412.75c40.1 40.1 95.54 64.92 156.75 64.92 61.21 0 116.63-24.82 156.74-64.92 40.1-40.11 64.92-95.53 64.92-156.74 0-61.21-24.82-116.65-64.92-156.76-40.11-40.1-95.53-64.92-156.74-64.92-61.21 0-116.65 24.82-156.75 64.92-40.11 40.11-64.93 95.53-64.93 156.76 0 61.21 24.82 116.63 64.93 156.74z"/></svg>