<svg xmlns="http://www.w3.org/2000/svg" shape-rendering="geometricPrecision" text-rendering="geometricPrecision" image-rendering="optimizeQuality" fill-rule="evenodd" clip-rule="evenodd" viewBox="0 0 512 512"><path fill-rule="nonzero" d="M255.99 0c70.68 0 134.7 28.66 181.02 74.98C483.33 121.3 512 185.31 512 256c0 70.68-28.67 134.69-74.99 181.01C390.69 483.33 326.67 512 255.99 512S121.3 483.33 74.98 437.01C28.66 390.69 0 326.68 0 256c0-70.67 28.66-134.7 74.98-181.02C121.3 28.66 185.31 0 255.99 0zm53.25 163.2h29.85c5.65 0 10.27 4.66 10.27 10.28v165.04c0 5.62-4.65 10.28-10.27 10.28h-29.85c-5.63 0-10.28-4.63-10.28-10.28V173.48c0-5.65 4.63-10.28 10.28-10.28zm-41.69 106.6c10.29-9.17 10.01-17.33 0-26.62l-82.3-76.78c-11.21-7.03-22.9-2.9-22.59 11.73l.44 154.47c.97 15.86 10.01 20.21 23.37 12.87l81.08-75.67zM412.74 99.25c-40.1-40.1-95.54-64.92-156.75-64.92-61.21 0-116.63 24.82-156.74 64.92-40.1 40.11-64.92 95.54-64.92 156.75 0 61.22 24.82 116.64 64.92 156.74 40.11 40.11 95.53 64.93 156.74 64.93 61.21 0 116.65-24.82 156.75-64.93 40.11-40.1 64.93-95.52 64.93-156.74 0-61.22-24.82-116.64-64.93-156.75z"/></svg>