<?xml version="1.0" encoding="utf-8"?><svg version="1.1" id="Layer_1" xmlns="http://www.w3.org/2000/svg" xmlns:xlink="http://www.w3.org/1999/xlink" x="0px" y="0px" viewBox="0 0 122.88 100.13" style="enable-background:new 0 0 122.88 100.13" xml:space="preserve"><style type="text/css">.st0{fill:#030303;}</style><g><path class="st0" d="M85.66,37.03c-1.4-1.4-1.4-3.66,0-5.05c1.4-1.4,3.66-1.4,5.05,0l13.03,13.03l13.03-13.03 c1.4-1.4,3.66-1.4,5.05,0c1.4,1.4,1.4,3.66,0,5.05L108.8,50.06l13.03,13.03c1.4,1.4,1.4,3.66,0,5.05c-1.4,1.4-3.66,1.4-5.05,0 l-13.03-13.03L90.72,68.14c-1.4,1.4-3.66,1.4-5.05,0c-1.4-1.4-1.4-3.66,0-5.05L98.7,50.06L85.66,37.03L85.66,37.03z M11.39,23.67 h26.4L60.26,1.05c1.39-1.4,3.64-1.4,5.04-0.01c0.7,0.7,1.05,1.61,1.05,2.53h0.01v92.99c0,1.97-1.6,3.57-3.57,3.57 c-1,0-1.91-0.41-2.56-1.08L37.98,80.29H11.39c-3.13,0-5.98-1.28-8.04-3.34C1.28,74.89,0,72.04,0,68.91V35.06 c0-3.13,1.28-5.98,3.34-8.04C5.4,24.95,8.25,23.67,11.39,23.67L11.39,23.67z M39.26,30.82H11.39c-1.16,0-2.22,0.48-2.99,1.25 c-0.77,0.77-1.25,1.83-1.25,2.99v33.85c0,1.16,0.48,2.22,1.25,2.99c0.77,0.77,1.83,1.25,2.99,1.25h27.87v0.02 c0.81,0,1.62,0.27,2.29,0.83l17.67,14.9V12.21L41.97,29.57C41.32,30.33,40.34,30.82,39.26,30.82L39.26,30.82z"/></g></svg>