<svg class="svg-icon" style="width: 1em; height: 1em;vertical-align: middle;fill: currentColor;overflow: hidden;" viewBox="0 0 1024 1024" version="1.1" xmlns="http://www.w3.org/2000/svg"><path d="M280.2 514.7c0-97.2-0.2-194.4 0.1-291.6 0.1-31.5 16-53.5 43.3-62.4 24.2-7.8 50 0.3 66.2 20.9 9.3 11.8 13.3 25.4 13.2 40.4-0.1 196.1 0.1 392.2-0.2 588.3-0.1 37.4-27.3 64.4-62 64-34.5-0.4-60.4-27.7-60.6-65.5-0.3-98 0-196.1 0-294.1zM623.2 516.1V232.2c0-46.1 24.1-74.9 62-74.4 37.3 0.5 60.8 28.5 60.8 73 0.1 191.8 0.1 383.7 0 575.5 0 33.7-15.2 55.9-43.2 65-24.3 7.9-49.7 0-66.3-20.7-10.7-13.3-13.5-28.8-13.4-45.5 0.2-96.3 0.1-192.6 0.1-289z"  /></svg>